{"title":"The.Lazarus.Papers.[A.K.A.-.The.Mercenary].[2010].DvdRip.XviD-Kn","uid":6532155,"size":941445120,"categoryP":"video","categoryS":"movies","magnet":"?xt=urn:btih:c58b663a37ed0e32bcf83859c0d46db717583466&amp;dn=The.Lazarus.Papers.%5BA.K.A.-.The.Mercenary%5D.%5B2010%5D.DvdRip.XviD-Kn&amp;tr=udp%3A%2F%2Ftracker.openbittorrent.com%3A80&amp;tr=udp%3A%2F%2Fopen.demonii.com%3A1337&amp;tr=udp%3A%2F%2Ftracker.coppersurfer.tk%3A6969&amp;tr=udp%3A%2F%2Fexodus.desync.com%3A6969","seeders":0,"leechers":1,"uploader":"Jon.Pson","files":1,"time":1310385382,"description":"Lonny Smith, a young man with a suitcase full of money, who might drop dead at any moment is searching for love with each dying breath even if he has to pay for it. One is an ex-assassin slave runner, who operates a mail order bride scam exploiting prostitutes infected by HIV. Another is a mysterious club owner named Kyo, who manages a cabaret show and finally, a vixen named Nana, the girl who will bring it all crashing down. They all will carve their way through the macabre alleys of a magical land buried in South East Asia, a city named Pali, the city of gold. In two days their lives will twist and turn, slicing a bloody trail leading them to a cryptic divine plan to create a new Lotus. She is an individual that can heal anything she touches, only, the current Lotus is suicidal, and has promised never to heal again.\n\nThis two day adventure bereft with unfortunate players, in a do-or-die land, will entwine together in the most abstract of ways, to create a unique ethnically diverse surreal love-action-crime drama, that questions the importance of life and love. Through their eyes, we will uncover a miracle in the most unlikely of places.\n\n\nGeneral\nComplete name                    : Z:\\Movies\\The.Lazarus.Papers.[The.Mercenary].[2010].DvdRip.XviD-KnÃƒÂ£\\The.Lazarus.Papers.[The.Mercenary].[2010].DvdRip.XviD-KnÃƒÂ£.avi\nFormat                           : AVI\nFormat/Info                      : Audio Video Interleave\nFile size                        : 898 MiB\nDuration                         : 1h 28mn\nOverall bit rate                 : 1 415 Kbps\nWriting application              : VirtualDubMod 1.5.4.1 (build 2178/release)\nWriting library                  : VirtualDubMod build 2178/release\n\nVideo\nID                               : 0\nFormat                           : MPEG-4 Visual\nFormat profile                   : Advanced Simple@L5\nFormat settings, BVOP            : 1\nFormat settings, QPel            : No\nFormat settings, GMC             : No warppoints\nFormat settings, Matrix          : Custom\nCodec ID                         : XVID\nCodec ID/Hint                    : XviD\nDuration                         : 1h 28mn\nBit rate                         : 960 Kbps\nWidth                            : 640 pixels\nHeight                           : 368 pixels\nDisplay aspect ratio             : 16:9\nFrame rate                       : 25.000 fps\nColor space                      : YUV\nChroma subsampling               : 4:2:0\nBit depth                        : 8 bits\nScan type                        : Progressive\nCompression mode                 : Lossy\nBits/(Pixel*Frame)               : 0.163\nStream size                      : 609 MiB (68%)\nWriting library                  : XviD 1.2.1 (UTC 2008-12-04)\n\nAudio\nID                               : 1\nFormat                           : AC-3\nFormat/Info                      : Audio Coding 3\nMode extension                   : CM (complete main)\nCodec ID                         : 2000\nDuration                         : 1h 28mn\nBit rate mode                    : Constant\nBit rate                         : 448 Kbps\nChannel(s)                       : 6 channels\nChannel positions                : Front: L C R, Side: L R, LFE\nSampling rate                    : 48.0 KHz\nBit depth                        : 16 bits\nCompression mode                 : Lossy\nStream size                      : 284 MiB (32%)\nAlignment                        : Split accross interleaves\nInterleave, duration             : 96 ms (2.40 video frames)\nInterleave, preload duration     : 96 ms\nLanguage                         : English\n\n","torrent":{"xt":"urn:btih:c58b663a37ed0e32bcf83859c0d46db717583466","amp;dn":"The.Lazarus.Papers.%5BA.K.A.-.The.Mercenary%5D.%5B2010%5D.DvdRip.XviD-Kn","amp;tr":["udp%3A%2F%2Ftracker.openbittorrent.com%3A80","udp%3A%2F%2Fopen.demonii.com%3A1337","udp%3A%2F%2Ftracker.coppersurfer.tk%3A6969","udp%3A%2F%2Fexodus.desync.com%3A6969"],"infoHash":"c58b663a37ed0e32bcf83859c0d46db717583466","infoHashBuffer":{"type":"Buffer","data":[197,139,102,58,55,237,14,50,188,248,56,89,192,212,109,183,23,88,52,102]},"announce":[],"urlList":[]}}